# xmcd
#
# Track frame offsets: 
#        150
#        22235
#        38794
#        54842
#        69333
#        84878
#        101436
#        121640
#        135545
#        149873
#        171916
#        206252
#        229480
#        247236
#
# Disc length: 3570 seconds
#
# Revision: 1
# Processed by: cddbd v1.5.2PL0 Copyright (c) Steve Scherf et al.
# Submitted via: ExactAudioCopyFreeDBPlugin 1.0
#
DISCID=c20df00e
DTITLE=Blues Flowers - Bluesmenty
DYEAR=2005
DGENRE=Blues
TTITLE0=Bez łez blues
TTITLE1=Umarł król
TTITLE2=Oj, co by tylko
TTITLE3=Łojotok z plastiku
TTITLE4=Szczypiorek blues
TTITLE5=Zamordowali
TTITLE6=Perkusisty blues siarczysty
TTITLE7=Graj Bartek boogie woogie
TTITLE8=Trabant blues
TTITLE9=Śnieg
TTITLE10=Johnny zamulony
TTITLE11=A ja chcę na forsie spać
TTITLE12=Amfibią kurs
TTITLE13=Świat mego snu
EXTD=YEAR: 2005
EXTT0=
EXTT1=
EXTT2=
EXTT3=
EXTT4=
EXTT5=
EXTT6=
EXTT7=
EXTT8=
EXTT9=
EXTT10=
EXTT11=
EXTT12=
EXTT13=
PLAYORDER=
